<svg xmlns="http://www.w3.org/2000/svg" viewBox="0 0 22 22" fill="#96aaa9" id="Image-Broken--Streamline-Phosphor" height="22" width="22">
  <desc>
    Image Broken Streamline Icon: https://streamlinehq.com
  </desc>
  <path d="M20.12153515625 1.87846484375H1.87846484375C0.96249140625 1.8784218750000001 0.22 2.6209476562500003 0.22 3.53692109375v14.926157812500001c0 0.9159734374999999 0.7424914062500001 1.65849921875 1.65846484375 1.65845625h6.6338421875c0.35694140625000004 0.000034375 0.6738531249999999 -0.22836171875000003 0.78673203125 -0.56698125l1.53718984375 -4.61052109375 3.7916570312499998 -1.515421875c0.2104265625 -0.085009375 0.37729140625 -0.251865625 0.4622921875 -0.46230078125l1.515421875 -3.78854609375 4.61052109375 -1.53718125c0.337390625 -0.11396171875000001 0.5643515625 -0.43061562499999995 0.5638789062499999 -0.786740625V3.53692109375c0 -0.9159390625000001 -0.7425171875000001 -1.65845625 -1.65846484375 -1.65845625ZM9.38403984375 14.0546828125l-1.46981484375 4.4083960937499995H1.87846484375v-2.9023070312500003l5.39 -5.39 3.15315 3.15315 -0.5618078125 0.22285312499999999c-0.225396875 0.09134296875 -0.39933437499999996 0.27702812499999996 -0.4757671875 0.50789921875Zm10.7374953125 -7.798922656249999 -4.4083960937499995 1.46981484375c-0.231515625 0.0771203125 -0.4173125 0.2522953125 -0.50789921875 0.478878125l-1.5257859375 3.8165359375000003 -1.5827968749999999 0.63747578125 -3.6558671874999997 -3.65587578125c-0.64758203125 -0.64715234375 -1.6970679687499999 -0.64715234375 -2.34465 0l-4.217675 4.2124929687499995V3.53692109375h18.2430703125Zm1.31433671875 3.4205789062500003c-0.21629609375 -0.155959375 -0.49438984375000006 -0.19838671875 -0.7473468750000001 -0.11401328125l-2.46696484375 0.82300625c-0.23130078125 0.076896875 -0.41705468749999997 0.251659375 -0.50789921875 0.47784687499999995l-1.4832898437500002 3.70769609375 -3.70769609375 1.4832898437500002c-0.2261875 0.09083593749999999 -0.40095000000000003 0.2765984375 -0.47784687499999995 0.50789921875l-0.82300625 2.46696484375c-0.17991015625 0.537315625 0.22009453125 1.09278984375 0.78673203125 1.09250625h8.11298125c0.9159132812499999 -0.000034375 1.65846484375 -0.7425429687499999 1.65846484375 -1.65845625v-8.11298984375c0.00006015625 -0.266509375 -0.12798671875 -0.51680234375 -0.344128125 -0.67271015625Zm-1.31433671875 8.78673984375h-6.962424218750001l0.336875 -1.0106249999999999 3.68074609375 -1.4718859375000002c0.21043515625 -0.08500078125 0.37729140625 -0.251865625 0.4622921875 -0.46230078125l1.4718859375000002 -3.68074609375 1.0106249999999999 -0.336875Z" stroke-width="0.0859"></path>
</svg>