<!DOCTYPE svg PUBLIC "-//W3C//DTD SVG 1.1//EN" "http://www.w3.org/Graphics/SVG/1.1/DTD/svg11.dtd">
<!-- Uploaded to: SVG Repo, www.svgrepo.com, Transformed by: SVG Repo Mixer Tools -->
<svg fill="#94a5bb" width="256px" height="256px" viewBox="0 0 24 24" xmlns="http://www.w3.org/2000/svg" stroke="#94a5bb" stroke-width="0.24000000000000005">
<g id="SVGRepo_bgCarrier" stroke-width="0"/>
<g id="SVGRepo_tracerCarrier" stroke-linecap="round" stroke-linejoin="round"/>
<g id="SVGRepo_iconCarrier">
<path d="M21.707,11.293a1,1,0,0,1,0,1.414l-4,4a1,1,0,0,1-1.414-1.414L19.586,12,16.293,8.707a1,1,0,1,1,1.414-1.414ZM7,17a1,1,0,0,0,.707-1.707L4.414,12,7.707,8.707A1,1,0,1,0,6.293,7.293l-4,4a1,1,0,0,0,0,1.414l4,4A1,1,0,0,0,7,17Z"/>
</g>
</svg>